<svg width="93" height="24" viewBox="0 0 93 24" fill="none" xmlns="http://www.w3.org/2000/svg">
<path d="M0 21.5443V23.7364L4.97308 24C10.8991 24 10.8813 20.2492 10.8647 16.754C10.8638 16.5701 10.863 16.387 10.863 16.2051C10.863 13.7329 8.49321 11.879 6.24036 10.1166C4.19932 8.51984 2.25423 6.99818 2.25423 5.15974C2.25423 3.21069 2.39205 1.77952 5.83737 1.77952L7.76545 1.97819C8.69208 2.04773 9.2827 2.04773 9.2827 0.645727L5.63722 0C0.061502 0 0.0620562 1.96681 0.0629671 5.26954L0.0629975 5.39817C0.0629975 8.00133 2.60446 10.1006 4.92055 12.0136C6.85934 13.6151 8.64023 15.0861 8.64023 16.6131C8.64023 16.8981 8.64636 17.1817 8.6524 17.461C8.70346 19.8212 8.74782 21.8721 5.02624 21.8721L0 21.5443Z" fill="#444658"/>
<path d="M14.7722 0.397363V23.7907H23.3593V23.4331C23.3593 21.9416 23.3173 21.9416 21.3571 21.9416H17.0475V1.88879C17.0475 0.397363 17.0055 0.397363 15.0459 0.397363H14.7722Z" fill="#444658"/>
<path d="M35.9403 15.1123L36.825 19.3482C40.9612 1.95778 40.9229 0.921791 40.9141 0.682494L40.9137 0.671558C40.9135 0.666479 40.9134 0.66168 40.9134 0.656976C40.9134 0.169533 40.5341 0.169533 39.3647 0.169533H38.8482L35.9403 15.1123Z" fill="#444658"/>
<path d="M33.8288 23.7907H35.7254L31.1421 1.88811C30.8363 0.396678 30.7306 0.396678 29.0769 0.396678H28.5604L33.8288 23.7907Z" fill="#9ABDFF"/>
<path d="M47.4712 0.378139C46.618 0.378139 45.8594 1.02449 45.8909 1.83975C45.8909 2.64507 46.618 3.33118 47.4712 3.33118C48.3249 3.33118 49.0521 2.65436 49.0521 1.83975C49.0521 1.02449 48.3354 0.378139 47.4712 0.378139Z" fill="#9ABDFF"/>
<path d="M48.3258 6.57932C48.1027 6.32332 47.6006 6.32332 46.4704 6.32332V22.4099C46.4704 23.0724 46.4704 23.4406 46.6487 23.6453C46.8717 23.9013 47.3738 23.9013 48.5041 23.9013V7.81475C48.5041 7.1522 48.5041 6.78397 48.3258 6.57932Z" fill="#9ABDFF"/>
<path d="M54.1059 21.8258C53.6264 21.7758 53.1548 21.7266 52.708 21.6926H52.6975V23.4132C53.1309 23.4647 53.5797 23.5338 54.0339 23.6039C54.9822 23.7501 55.9543 23.8999 56.8595 23.8999C60.6526 23.8999 60.8213 20.5495 60.8213 17.8852C60.8213 16.1951 58.9982 14.8626 57.1017 13.501C55.7209 12.4573 54.415 11.2937 54.415 10.2499C54.415 8.85784 54.457 7.78428 56.7965 7.78428L58.2081 7.98298C59.1354 8.14192 59.9255 7.98298 59.9255 6.58094L56.6594 6.12397C52.5289 6.12397 52.5289 8.01276 52.5289 10.4784C52.5289 12.5268 54.4675 14.0573 56.322 15.3898C57.6601 16.364 58.7351 17.2389 58.7666 18.1833C58.8401 20.1721 58.4923 22.0211 56.8385 22.0211C55.9789 22.0211 55.0279 21.9219 54.1059 21.8258Z" fill="#9ABDFF"/>
<path d="M65.0994 0.378139C64.2456 0.378139 63.487 1.02449 63.5185 1.83975C63.5185 2.64507 64.2463 3.33118 65.0994 3.33118C65.9525 3.33118 66.6797 2.65436 66.6797 1.83975C66.6797 1.02449 65.963 0.378139 65.0994 0.378139Z" fill="#9ABDFF"/>
<path d="M65.9639 6.57926C65.7409 6.32332 65.2389 6.32332 64.1091 6.32332L64.1085 22.4099C64.1085 23.0724 64.1085 23.4406 64.2868 23.6453C64.5098 23.9013 65.0119 23.9013 66.1422 23.9013V7.81475C66.1422 7.15211 66.1422 6.78388 65.9639 6.57926Z" fill="#9ABDFF"/>
<path fill-rule="evenodd" clip-rule="evenodd" d="M75.0246 6.09418C70.3042 6.09418 70.3042 8.50021 70.3042 14.9626C70.3042 21.435 70.3042 24 75.0246 24C79.7138 24 79.7137 21.4289 79.7135 15.0891V14.962C79.7135 8.52999 79.7135 6.09418 75.0246 6.09418ZM77.6808 14.793C77.6803 15.0873 77.6798 15.3921 77.6798 15.7077C77.6798 20.3608 77.6063 22.2794 75.0246 22.2695C72.3326 22.2695 72.334 20.2185 72.3376 15.1802C72.3378 14.9924 72.3379 14.8005 72.3379 14.6043C72.3379 9.70289 72.3694 7.81341 75.0246 7.81341C77.6926 7.81341 77.6893 9.7572 77.6808 14.793Z" fill="#9ABDFF"/>
<path d="M88.7954 7.81341C90.9663 7.81341 90.9663 8.7883 90.9663 15.0918V22.2794C90.9663 22.942 90.9663 23.3102 91.1446 23.5148C91.3676 23.7708 91.8697 23.7708 93 23.7708V15.1315C93 7.52601 93 6.09418 88.6589 6.09418L85.5607 7.29687C85.5607 6.93082 85.5607 6.7023 85.4529 6.55966C85.2737 6.32267 84.7968 6.32267 83.5276 6.32267V22.2794C83.5276 22.942 83.5277 23.3102 83.7059 23.5149C83.929 23.7708 84.4309 23.7708 85.5607 23.7708V9.7625L85.4242 8.94724L88.7954 7.81341Z" fill="#9ABDFF"/>
</svg>
